<svg id="Logo" xmlns="http://www.w3.org/2000/svg" viewBox="0 0 246.15 247.37">
  <defs>
    <style>
      .cls-1 {
        fill: #ffffff;
      }
    </style>
  </defs>
  <title>logo</title>
  <g id="Logo-2" data-name="Logo">
    <g id="DS">
      <path class="cls-1" d="M423.59,387.41l-9.22-2a80.49,80.49,0,0,1-17.32-5.69,66.42,66.42,0,0,1-14.49-9l11.76-20.94a57,57,0,0,0,18,9.87,64.57,64.57,0,0,0,20.93,3.47q12.4,0,19.27-4.21T459.34,347v-.09a11.71,11.71,0,0,0-3.06-8.52,18.12,18.12,0,0,0-8-4.63,97.47,97.47,0,0,0-12.6-2.69,1.66,1.66,0,0,0-.51-.09,1.72,1.72,0,0,1-.51-.09l-2-.28a125.31,125.31,0,0,1-22.41-5.32,33,33,0,0,1-15.1-11.21q-6.21-8-6.2-22.74v-.09q0-13.06,5.83-22.33a36.83,36.83,0,0,1,17-14.12Q422.85,250,438.59,250a68.55,68.55,0,0,1,14.78,1.66,80.91,80.91,0,0,1,14.77,4.82,82.62,82.62,0,0,1,13.71,7.6L471.1,285.52a67.78,67.78,0,0,0-16.25-8.33,49.11,49.11,0,0,0-16.26-3q-11.67,0-18.06,3.85t-6.39,10.79V289q0,5.83,3.33,9.22a20,20,0,0,0,8.25,4.95,132.09,132.09,0,0,0,13.8,3.34c.24.06.49.1.74.14a6.37,6.37,0,0,1,.74.13c.37.07.73.14,1.07.24a10.38,10.38,0,0,0,1.06.23,112.67,112.67,0,0,1,21.35,6.06,33.29,33.29,0,0,1,14.31,11.49q5.74,7.92,5.74,21.63v.18q0,12.88-6,22.05t-17.55,14q-11.54,4.82-27.74,4.82Z" transform="translate(-296.36 -173.52)"/>
      <path id="D" class="cls-1" d="M354.35,207V341.67h25.37V207Zm91.42,22.13a40.09,40.09,0,0,0-18.12-16.48Q415.76,207,398.9,207H367.13v24.45h32.32q12.51,0,19.36,6a19.18,19.18,0,0,1,6,9.78,86.32,86.32,0,0,1,13.82-1,70.51,70.51,0,0,1,12.94,1.23A47.71,47.71,0,0,0,445.77,229.13ZM438.59,278a38.71,38.71,0,0,0-12.93,1.83v14.35a30.75,30.75,0,0,1-.36,4.82c.5.22,1,.41,1.56.59a125.69,125.69,0,0,0,13.39,3.22l.18.05.29.05c.35.05.69.11,1,.18s.88.18,1.3.29a5,5,0,0,0,.69.15l.11,0q3.67.71,7,1.53A60.28,60.28,0,0,0,452,293.41V280.18A44.46,44.46,0,0,0,438.59,278ZM409,328.83a36.67,36.67,0,0,1-16.13-11.61H367.13v24.45H398.8q17.32,0,29.27-6c1-.48,1.88-1,2.78-1.52A126.93,126.93,0,0,1,409,328.83Z" transform="translate(-296.36 -173.52)"/>
    </g>
    <path id="BOX" class="cls-1" d="M488.27,347l54.25-63.36L413.84,173.52l-25.46,29.73h9.85l16.43-19.18L532,284.5l-44.52,52a54.75,54.75,0,0,1,.84,9.89v.18C488.28,346.72,488.28,346.89,488.27,347Zm-47.38,43.83-16.67,19.46-36.78-31.49h0l-9.27-7.93-71.25-61,43.68-51V247.37l-54.24,63.35L425,420.89l27.08-31.64A79.83,79.83,0,0,1,440.89,390.87Z" transform="translate(-296.36 -173.52)"/>
  </g>
</svg>
