<svg id="Logo" xmlns="http://www.w3.org/2000/svg" viewBox="0 0 248.52 247.38">
  <defs>
    <style>
      .cls-1 {
        fill: #fff;
      }
    </style>
  </defs>
  <title>logo</title>
  <g id="Logo-2" data-name="Logo">
    <g id="DS">
      <path class="cls-1" d="M423.59,387.41l-9.22-2a80.49,80.49,0,0,1-17.32-5.69,66.42,66.42,0,0,1-14.49-9l11.76-20.94a57,57,0,0,0,18,9.87,64.57,64.57,0,0,0,20.93,3.47q12.4,0,19.27-4.21t6.85-11.9v-.1a11.71,11.71,0,0,0-3.06-8.52,18.12,18.12,0,0,0-8-4.63,97.47,97.47,0,0,0-12.6-2.69,1.66,1.66,0,0,0-.51-.09,1.72,1.72,0,0,1-.51-.09l-2-.28a125.31,125.31,0,0,1-22.41-5.32,33,33,0,0,1-15.1-11.21q-6.21-8-6.2-22.74v-.09q0-13.06,5.83-22.33a36.83,36.83,0,0,1,17-14.12Q422.85,250,438.59,250a68.55,68.55,0,0,1,14.78,1.66,80.91,80.91,0,0,1,14.77,4.82,82.62,82.62,0,0,1,13.71,7.6L471.1,285.52a67.78,67.78,0,0,0-16.25-8.33,49.11,49.11,0,0,0-16.26-3q-11.67,0-18.06,3.85t-6.39,10.79V289q0,5.83,3.33,9.22a20,20,0,0,0,8.25,4.95,132.09,132.09,0,0,0,13.8,3.34c.24.06.49.1.74.14a6.37,6.37,0,0,1,.74.13c.37.07.73.14,1.07.24a10.38,10.38,0,0,0,1.06.23,112.67,112.67,0,0,1,21.35,6.06,33.29,33.29,0,0,1,14.31,11.49q5.74,7.92,5.74,21.63v.18q0,12.88-6,22.05t-17.55,14q-11.54,4.82-27.74,4.82Z" transform="translate(-296.36 -173.52)"/>
      <path id="D" class="cls-1" d="M354.35,207V341.67h25.37V207Zm91.42,22.13a40.09,40.09,0,0,0-18.12-16.48Q415.76,207,398.9,207H367.13v24.45h32.32q12.51,0,19.36,6a19.18,19.18,0,0,1,6,9.78,86.32,86.32,0,0,1,13.82-1,70.51,70.51,0,0,1,12.94,1.23A47.71,47.71,0,0,0,445.77,229.13ZM438.59,278a38.71,38.71,0,0,0-12.93,1.83v14.35a30.75,30.75,0,0,1-.36,4.82c.5.22,1,.41,1.56.59a125.69,125.69,0,0,0,13.39,3.22l.18.05.29.05c.35.05.69.11,1,.18s.88.18,1.3.29a5,5,0,0,0,.69.15l.11,0q3.67.71,7,1.53A60.28,60.28,0,0,0,452,293.41V280.18A44.46,44.46,0,0,0,438.59,278ZM409,328.83a36.67,36.67,0,0,1-16.13-11.61H367.13v24.45H398.8q17.32,0,29.27-6c1-.48,1.88-1,2.78-1.52A126,126,0,0,1,409,328.83Z" transform="translate(-296.36 -173.52)"/>
    </g>
    <path id="BOX" class="cls-1" d="M488.27,347l54.25-63.36L413.84,173.52l-25.46,29.73h9.85l16.43-19.18L532,284.5l-44.52,52a54.75,54.75,0,0,1,.84,9.89v.18C488.28,346.72,488.28,346.89,488.27,347Zm-47.38,43.83-16.67,19.46-36.77-31.49h0l-9.27-7.93-71.25-61,43.68-51V247.37l-54.24,63.35L425,420.89l27.08-31.64A79.83,79.83,0,0,1,440.89,390.87Z" transform="translate(-296.36 -173.52)"/>
    <g id="Lettering">
      <path class="cls-1" d="M455.45,420.3a3.91,3.91,0,0,1-1.81-1.76,6.48,6.48,0,0,1-.6-3v-1.94a7.63,7.63,0,0,1,.62-3.2,4.07,4.07,0,0,1,1.82-1.91,6.3,6.3,0,0,1,3-.64,6.23,6.23,0,0,1,3,.64,4.07,4.07,0,0,1,1.81,1.92,7.32,7.32,0,0,1,.61,3.19v2.22a2.92,2.92,0,0,1-.46,1.82,1.58,1.58,0,0,1-1.32.59,1.56,1.56,0,0,1-1.21-.44,1.87,1.87,0,0,1-.41-1.31l.82-.54a2.27,2.27,0,0,0,.21,1.11.69.69,0,0,0,.64.36.71.71,0,0,0,.65-.34A2.36,2.36,0,0,0,463,416v-2.36a6.51,6.51,0,0,0-.51-2.74,3.54,3.54,0,0,0-1.52-1.65,5.21,5.21,0,0,0-2.49-.55,5.28,5.28,0,0,0-2.52.55,3.47,3.47,0,0,0-1.52,1.64,6.67,6.67,0,0,0-.52,2.75c0,.32,0,.64,0,1v1a5.39,5.39,0,0,0,.51,2.48,3.21,3.21,0,0,0,1.52,1.48,5.75,5.75,0,0,0,2.54.49h2.12v.85h-2.12A7,7,0,0,1,455.45,420.3Zm.8-2.82a3.84,3.84,0,0,1-.63-2.4v-1.23a3.5,3.5,0,0,1,.71-2.39,2.74,2.74,0,0,1,2.14-.8,2.7,2.7,0,0,1,2.13.8,3.53,3.53,0,0,1,.71,2.4v2.3l-.69.63a1.63,1.63,0,0,1-.78,1.11,3.33,3.33,0,0,1-1.71.38A2.23,2.23,0,0,1,456.25,417.48Zm3.63-.65a2.6,2.6,0,0,0,.47-1.69v-1.36a2.57,2.57,0,0,0-.47-1.68,1.77,1.77,0,0,0-1.43-.56c-1.25,0-1.87.75-1.87,2.24v1.36a2.6,2.6,0,0,0,.47,1.69,1.73,1.73,0,0,0,1.4.56A1.77,1.77,0,0,0,459.88,416.83Z" transform="translate(-296.36 -173.52)"/>
      <path class="cls-1" d="M466.25,407.8h1v10.37h-1Zm1,9.41h2.35a3,3,0,0,0,2.15-.67,2.66,2.66,0,0,0,.72-2v-3.05a2.66,2.66,0,0,0-.72-2,3,3,0,0,0-2.15-.67h-2.35v-1h2.3a5.27,5.27,0,0,1,2.2.41,2.77,2.77,0,0,1,1.31,1.24,4.41,4.41,0,0,1,.44,2.07v2.93a4.41,4.41,0,0,1-.44,2.07,2.77,2.77,0,0,1-1.32,1.23,5,5,0,0,1-2.19.42h-2.3Z" transform="translate(-296.36 -173.52)"/>
      <path class="cls-1" d="M477.07,418.17h-1V407.8h1Z" transform="translate(-296.36 -173.52)"/>
      <path class="cls-1" d="M479.85,407.8h1l6,9.34-.42-.28V407.8h1v10.36h-1l-6.14-9.41.55.41v9h-1Z" transform="translate(-296.36 -173.52)"/>
      <path class="cls-1" d="M491.31,418.17h-1V407.8h1Z" transform="translate(-296.36 -173.52)"/>
      <path class="cls-1" d="M496.46,418.28l-.67-.15a5.34,5.34,0,0,1-2.34-1.14l.62-.81a4.45,4.45,0,0,0,1.43.85,5,5,0,0,0,1.71.29,3.48,3.48,0,0,0,2.06-.53,1.7,1.7,0,0,0,.73-1.48h0a1.39,1.39,0,0,0-.31-.95,2.08,2.08,0,0,0-.83-.53,8.49,8.49,0,0,0-1.29-.33h-.1l-.2,0a13.55,13.55,0,0,1-1.75-.43,2.54,2.54,0,0,1-1.12-.77,2.25,2.25,0,0,1-.46-1.49h0a3.06,3.06,0,0,1,.43-1.64,2.78,2.78,0,0,1,1.26-1,5.27,5.27,0,0,1,3.08-.23,5.3,5.3,0,0,1,1.06.36,6.48,6.48,0,0,1,1,.6l-.61.8a5.78,5.78,0,0,0-1.31-.7,3.83,3.83,0,0,0-1.27-.23,3.18,3.18,0,0,0-2,.54,1.78,1.78,0,0,0-.7,1.5h0a1.24,1.24,0,0,0,.35.92,2.21,2.21,0,0,0,.87.5,12,12,0,0,0,1.42.34l.06,0h.06l.09,0,.08,0a9.61,9.61,0,0,1,1.62.45,2.5,2.5,0,0,1,1.08.81,2.28,2.28,0,0,1,.43,1.47h0a2.94,2.94,0,0,1-.44,1.63,2.83,2.83,0,0,1-1.31,1,5.22,5.22,0,0,1-2.05.36Z" transform="translate(-296.36 -173.52)"/>
      <path class="cls-1" d="M503.08,407.8h1v10.37h-1Zm.69,4.75H510v1h-6.18Zm5.63-4.75h1v10.37h-1Z" transform="translate(-296.36 -173.52)"/>
      <path class="cls-1" d="M514.45,417.83a3,3,0,0,1-1.25-1.31,4.66,4.66,0,0,1-.42-2.07v-2.93a4.66,4.66,0,0,1,.42-2.07,3,3,0,0,1,1.25-1.31,4.54,4.54,0,0,1,3.94,0,3,3,0,0,1,1.25,1.31,4.66,4.66,0,0,1,.42,2.07v2.93a4.66,4.66,0,0,1-.42,2.07,3,3,0,0,1-1.25,1.31,4.54,4.54,0,0,1-3.94,0Zm3.38-.84a2.09,2.09,0,0,0,.9-1,3.53,3.53,0,0,0,.31-1.53v-3a3.53,3.53,0,0,0-.31-1.53,2.09,2.09,0,0,0-.9-1,2.83,2.83,0,0,0-1.41-.33A2.89,2.89,0,0,0,515,409a2.13,2.13,0,0,0-.89,1,3.53,3.53,0,0,0-.31,1.53v3a3.53,3.53,0,0,0,.31,1.53,2.13,2.13,0,0,0,.89,1,2.89,2.89,0,0,0,1.42.33A2.83,2.83,0,0,0,517.83,417Z" transform="translate(-296.36 -173.52)"/>
      <path class="cls-1" d="M523.87,417.83a3,3,0,0,1-1.24-1.31,4.52,4.52,0,0,1-.43-2.07v-2.93a4.52,4.52,0,0,1,.43-2.07,3,3,0,0,1,1.24-1.31,4.56,4.56,0,0,1,4,0,3,3,0,0,1,1.24,1.31,4.52,4.52,0,0,1,.43,2.07v2.93a4.52,4.52,0,0,1-.43,2.07,3,3,0,0,1-1.24,1.31,4.56,4.56,0,0,1-4,0Zm3.39-.84a2.2,2.2,0,0,0,.9-1,3.54,3.54,0,0,0,.3-1.53v-3a3.54,3.54,0,0,0-.3-1.53,2.2,2.2,0,0,0-.9-1,3.2,3.2,0,0,0-2.83,0,2.2,2.2,0,0,0-.9,1,3.54,3.54,0,0,0-.3,1.53v3a3.54,3.54,0,0,0,.3,1.53,2.2,2.2,0,0,0,.9,1,3.2,3.2,0,0,0,2.83,0Z" transform="translate(-296.36 -173.52)"/>
      <path class="cls-1" d="M530.41,407.8h7.32v1h-7.32Zm3.15.42h1v9.95h-1Z" transform="translate(-296.36 -173.52)"/>
      <path class="cls-1" d="M544.74,408.56l-5.12,8.72h5.27v.89h-6.45v-.76l5.16-8.72h-5v-.89h6.17Z" transform="translate(-296.36 -173.52)"/>
    </g>
  </g>
</svg>
